<svg xmlns="http://www.w3.org/2000/svg" viewBox="0 0 128 128">
  <!-- Background shield -->
  <path d="M64 8 C26 8 8 26 8 64 C8 102 26 120 64 120 C102 120 120 102 120 64 C120 26 102 8 64 8" fill="#2563eb"/>
  
  <!-- Fingerprint design -->
  <path d="
    M64 32
    C48 32 36 44 36 60
    C36 76 48 88 64 88
    C80 88 92 76 92 60
    C92 44 80 32 64 32
    M64 40
    C76 40 84 48 84 60
    C84 72 76 80 64 80
    C52 80 44 72 44 60
    C44 48 52 40 64 40
    M64 48
    C56 48 52 52 52 60
    C52 68 56 72 64 72
    C72 72 76 68 76 60
    C76 52 72 48 64 48
  " fill="white"/>
  
  <!-- Shield outline -->
  <path d="
    M64 16
    C94 16 112 34 112 64
    C112 94 94 112 64 112
    C34 112 16 94 16 64
    C16 34 34 16 64 16
    Z
    M64 8
    C26 8 8 26 8 64
    C8 102 26 120 64 120
    C102 120 120 102 120 64
    C120 26 102 8 64 8
    Z
  " fill="white" fill-opacity="0.2"/>
</svg>
